<svg id="Layer_1" data-name="Layer 1" xmlns="http://www.w3.org/2000/svg" viewBox="0 0 1260.99 305"><defs><style>.cls-1{fill:#f2f2f2;}</style></defs><path class="cls-1" d="M407.34,56.37q27.24,0,41.41,15.18t14.17,46.62q0,31.26-14.17,46.44t-41.41,15.18H363.82q-10.24,0-10.24-10.06V66.43q0-10.07,10.24-10.06ZM375.16,156q0,2.19,2.37,2.19h29.81q17.91,0,26-9.51t8-30.71q0-21.21-7.95-30.63T407.34,78H377.53q-2.37,0-2.37,2.19Z"/><path class="cls-1" d="M554.88,56.37a48,48,0,0,1,17.92,3,35,35,0,0,1,12.34,8,31.17,31.17,0,0,1,7.13,11.8,43.49,43.49,0,0,1,2.29,14.07,47.18,47.18,0,0,1-1.46,11.61,38.53,38.53,0,0,1-4.57,10.79,33.62,33.62,0,0,1-8,8.87,34.75,34.75,0,0,1-12.07,5.85l28.71,49.37h-24L545,132.07H512.83q-3.11,0-3.11,3.1v44.62H488.15V131q0-10.43,4.57-15t14.81-4.58h48.09a19.21,19.21,0,0,0,7.86-1.46,14.44,14.44,0,0,0,5.3-3.84,16,16,0,0,0,3-5.48,20.68,20.68,0,0,0,1-6.4,17.11,17.11,0,0,0-4.11-11.43q-4.11-4.85-13.07-4.84H488V56.37Z"/><path class="cls-1" d="M684.15,56.37q27.06,0,41.41,15.36t14.35,46.62q0,31.1-14.35,46.26t-41.41,15.18H667.33q-27.06,0-41.41-15.18t-14.36-46.26q0-31.26,14.36-46.62t41.41-15.36ZM667.33,78q-17.93,0-26.06,9.5t-8.13,30.9q0,21.21,8,30.54t26.15,9.32h16.82q17.73,0,25.87-9.42t8.14-30.62q0-21.21-8-30.72t-26-9.5Z"/><path class="cls-1" d="M786.72,179.79H765.14V81.05q0-12.06,7-19.47t21.39-7.4q12.79,0,19.47,6.12T823.47,77l36,78.8a10.64,10.64,0,0,0,2.92,3.66,7.65,7.65,0,0,0,4.94,1.46,7.29,7.29,0,0,0,5.39-1.92,6.79,6.79,0,0,0,1.92-5V56.37h21.76v98.55q0,12.26-7,19.65T868.08,182a36.75,36.75,0,0,1-11.25-1.56,24.17,24.17,0,0,1-8.41-4.57,29.22,29.22,0,0,1-6.12-7.22,48.52,48.52,0,0,1-4.39-9.51l-36-78.8Q799.52,75,794.21,75a7.53,7.53,0,0,0-5.57,1.92,7,7,0,0,0-1.92,5.21Z"/><path class="cls-1" d="M947.61,56.37V179.79H926V56.37Z"/><path class="cls-1" d="M1113.26,56.37V78h-47.72q-17.93,0-26.06,9.41t-8.13,30.81q0,21.21,8,30.62t26.15,9.42h47.72v21.58h-47.72q-27.06,0-41.41-15.27t-14.36-46.35q0-31.26,14.36-46.53t41.41-15.27Z"/><path class="cls-1" d="M1205.22,56.37q27.06,0,41.42,15.36T1261,118.35q0,31.1-14.35,46.26t-41.42,15.18H1188.4q-27.06,0-41.41-15.18t-14.35-46.26q0-31.26,14.35-46.62t41.41-15.36ZM1188.4,78q-17.91,0-26.05,9.5t-8.14,30.9q0,21.21,8,30.54t26.14,9.32h16.82q17.74,0,25.88-9.42t8.13-30.62q0-21.21-8-30.72t-26-9.5Z"/><path class="cls-1" d="M353.78,205.8h17.49q8.89,0,13.81,6.4,4.37,5.79,4.37,14.8a29.88,29.88,0,0,1-2.58,12.6q-4.56,9.94-15.66,9.94H353.78Zm16.32,38.68a16,16,0,0,0,4.84-.62,10.74,10.74,0,0,0,5.53-4.47,18.59,18.59,0,0,0,2.47-6.79,26.67,26.67,0,0,0,.44-4.59q0-8.12-3.16-12.62T370,210.89H359.77v33.59Z"/><path class="cls-1" d="M401.78,205.8h31.74v5.36h-26v13.28h24v5.06h-24v14.83H434v5.21H401.78Z"/><path class="cls-1" d="M449.41,235.43a12.25,12.25,0,0,0,1.7,6q2.83,4.35,10,4.35a17.26,17.26,0,0,0,5.85-.95c3.4-1.23,5.1-3.44,5.1-6.61q0-3.57-2.16-5.09a21.12,21.12,0,0,0-6.87-2.59l-5.74-1.34q-5.62-1.32-8-2.89a9.25,9.25,0,0,1-4-8.19,12.8,12.8,0,0,1,4-9.68q4-3.78,11.25-3.78A19.17,19.17,0,0,1,471.89,208q4.68,3.31,4.68,10.62H471a11.09,11.09,0,0,0-1.83-5.39q-2.6-3.44-8.82-3.43c-3.35,0-5.75.74-7.22,2.21a7,7,0,0,0-2.2,5.12,5,5,0,0,0,2.6,4.7,36.66,36.66,0,0,0,7.7,2.38l5.95,1.4a18,18,0,0,1,6.63,2.77q4,3.07,4,8.9,0,7.27-5.15,10.4a22.69,22.69,0,0,1-12,3.12q-8,0-12.46-4.17c-3-2.75-4.47-6.5-4.41-11.22Z"/><path class="cls-1" d="M502.64,205.8h6.69l15.87,43.74h-6.49l-4.56-13.1H497l-4.75,13.1h-6.07Zm9.83,25.82-6.74-19.33-7,19.33Z"/><path class="cls-1" d="M534.92,205.8H554.8a19.53,19.53,0,0,1,8.1,1.46q6.06,2.81,6.06,10.33A10.76,10.76,0,0,1,562.79,228a9,9,0,0,1,3.86,2.74c.86,1.14,1.34,3,1.44,5.51l.21,5.87a17.82,17.82,0,0,0,.42,3.72,3.67,3.67,0,0,0,1.9,2.68v1h-7.26a5.31,5.31,0,0,1-.48-1.46,27.54,27.54,0,0,1-.3-3.45l-.35-7.3c-.14-2.85-1.17-4.77-3.1-5.74a12.38,12.38,0,0,0-5.18-.81h-13.1v18.76h-5.93Zm19.25,20a10.86,10.86,0,0,0,6.41-1.67q2.35-1.66,2.36-6,0-4.68-3.3-6.37a10.47,10.47,0,0,0-4.72-.9H540.85v15Z"/><path class="cls-1" d="M582.62,205.8H602.5a19.53,19.53,0,0,1,8.1,1.46q6.06,2.81,6,10.33A10.73,10.73,0,0,1,610.49,228a9,9,0,0,1,3.86,2.74c.86,1.14,1.34,3,1.44,5.51l.21,5.87a18.7,18.7,0,0,0,.41,3.72,3.68,3.68,0,0,0,1.91,2.68v1h-7.26a5.31,5.31,0,0,1-.48-1.46,27.54,27.54,0,0,1-.3-3.45l-.36-7.3c-.13-2.85-1.16-4.77-3.09-5.74a12.41,12.41,0,0,0-5.18-.81H588.54v18.76h-5.92Zm19.24,20a10.89,10.89,0,0,0,6.42-1.67q2.36-1.66,2.36-6,0-4.68-3.3-6.37a10.47,10.47,0,0,0-4.72-.9H588.54v15Z"/><path class="cls-1" d="M665.63,212.05q4.35,5.82,4.35,14.86,0,9.79-5,16.29-5.84,7.62-16.64,7.62-10.1,0-15.87-6.67-5.15-6.42-5.15-16.25a25.85,25.85,0,0,1,4.41-15.19q5.65-8.1,16.73-8.1Q660.06,204.61,665.63,212.05Zm-5.23,27.89A23.9,23.9,0,0,0,663.9,227q0-7.72-4-12.43t-11-4.71a14.37,14.37,0,0,0-11.08,4.67q-4.29,4.66-4.29,13.75a20.11,20.11,0,0,0,3.68,12.26q3.68,5,11.92,5Q656.92,245.55,660.4,239.94Z"/><path class="cls-1" d="M680.69,205.8h5.93v38.53h21.94v5.21H680.69Z"/><path class="cls-1" d="M718.27,205.8h5.92v38.53h21.95v5.21H718.27Z"/><path class="cls-1" d="M791.87,212.05q4.35,5.82,4.34,14.86,0,9.79-5,16.29-5.84,7.62-16.64,7.62-10.1,0-15.87-6.67-5.16-6.42-5.15-16.25a25.85,25.85,0,0,1,4.4-15.19q5.65-8.1,16.74-8.1Q786.3,204.61,791.87,212.05Zm-5.23,27.89a24,24,0,0,0,3.5-12.92q0-7.72-4-12.43t-11-4.71A14.36,14.36,0,0,0,764,214.55q-4.29,4.66-4.29,13.75a20.11,20.11,0,0,0,3.68,12.26q3.68,5,11.92,5Q783.14,245.55,786.64,239.94Z"/><path class="cls-1" d="M828.87,205.8h6v43.74h-6Z"/><path class="cls-1" d="M848.13,205.8h7l21.82,35.34V205.8h5.65v43.74h-6.65l-22.14-35.3v35.3h-5.66Z"/><path class="cls-1" d="M927.63,205.8V211H912.89v38.53h-6V211H892.17V205.8Z"/><path class="cls-1" d="M937.3,205.8H969v5.36h-26v13.28h24v5.06h-24v14.83h26.41v5.21H937.3Z"/><path class="cls-1" d="M981.07,205.8H987v38.53h21.94v5.21H981.07Z"/><path class="cls-1" d="M1020,205.8h6v43.74h-6Z"/><path class="cls-1" d="M1068.36,207.05q6.44,3.44,7.87,12h-5.87a10.71,10.71,0,0,0-4.34-7,14.72,14.72,0,0,0-8.31-2.19,12.9,12.9,0,0,0-10,4.56q-4.07,4.55-4.07,13.57,0,7.81,3.36,12.7t10.94,4.9a13.79,13.79,0,0,0,9.62-3.44q3.8-3.43,3.89-11.12h-13.69v-4.91h19.2v23.4h-3.81l-1.43-5.62a22.16,22.16,0,0,1-5.24,4.58,19.39,19.39,0,0,1-9.76,2.2,18.81,18.81,0,0,1-13.15-5q-6-6.31-6-17.33t5.87-17.48a18.55,18.55,0,0,1,14.44-6.19A21.85,21.85,0,0,1,1068.36,207.05Z"/><path class="cls-1" d="M1090.9,205.8h31.74v5.36h-26v13.28h24v5.06h-24v14.83h26.41v5.21H1090.9Z"/><path class="cls-1" d="M1134.67,205.8h7l21.81,35.34V205.8h5.66v43.74h-6.66l-22.13-35.3v35.3h-5.66Z"/><path class="cls-1" d="M1214.17,205.8V211h-14.74v38.53h-6V211H1178.7V205.8Z"/><path class="cls-1" d="M1223.84,205.8h31.74v5.36h-26v13.28h24v5.06h-24v14.83H1256v5.21h-32.19Z"/><circle class="cls-1" cx="984.89" cy="167.56" r="11.95" transform="translate(669.26 1115.44) rotate(-81.24)"/><circle class="cls-1" cx="158.89" cy="172.09" r="11.95" transform="translate(-35.4 302.91) rotate(-81.24)"/><path class="cls-1" d="M287.65,84.36l-.55.55-.19-.83a14,14,0,0,0-18.83,19.86l-.42.41A126.5,126.5,0,1,1,35.51,104,14,14,0,0,0,16.7,84.08l-.12.51-.23-.23a152,152,0,1,0,271.3,0Z"/><path class="cls-1" d="M152,0A151.84,151.84,0,0,0,25.41,67.86a24.59,24.59,0,0,1,4.43-.39c10.44,0,19.55,6.44,19.55,19.75,0,.11-1.38.27.36.49V176.1a4.13,4.13,0,0,0,.28,1.55C54.17,221.5,97.7,256.11,151,256.86c53.34-.75,96.89-35.36,101-79.21a4.28,4.28,0,0,0,.4-1.55V87.71c.58-.22.22-.38.22-.49,0-13.31,9-19.86,19.45-19.86a19.48,19.48,0,0,1,6.7.74A151.86,151.86,0,0,0,152,0Zm-4,221.22a35.88,35.88,0,1,1,35.88-35.88A35.87,35.87,0,0,1,148,221.22Z"/></svg>